<?xml version="1.0" encoding="UTF-8" standalone="no"?>
<!-- Created with Inkscape (http://www.inkscape.org/) -->

<svg
   xmlns:dc="http://purl.org/dc/elements/1.1/"
   xmlns:cc="http://creativecommons.org/ns#"
   xmlns:rdf="http://www.w3.org/1999/02/22-rdf-syntax-ns#"
   xmlns:svg="http://www.w3.org/2000/svg"
   xmlns="http://www.w3.org/2000/svg"
   xmlns:xlink="http://www.w3.org/1999/xlink"
   xmlns:sodipodi="http://sodipodi.sourceforge.net/DTD/sodipodi-0.dtd"
   xmlns:inkscape="http://www.inkscape.org/namespaces/inkscape"
   width="80"
   height="80.000008"
   id="svg34325"
   version="1.1"
   inkscape:version="0.48.0 r9654"
   sodipodi:docname="New document 43">
  <defs
     id="defs34327">
    <linearGradient
       x1="146.08363"
       y1="588.83795"
       x2="10.688385"
       y2="294.07285"
       id="linearGradient10077"
       xlink:href="#linearGradient30537"
       gradientUnits="userSpaceOnUse"
       gradientTransform="matrix(0.938001,0,0,0.938001,23.26608,23.10867)" />
    <linearGradient
       id="linearGradient30537">
      <stop
         id="stop30539"
         style="stop-color:#adadb0;stop-opacity:1"
         offset="0" />
      <stop
         id="stop30541"
         style="stop-color:#b7b7b9;stop-opacity:0.3877551"
         offset="1" />
    </linearGradient>
    <linearGradient
       x1="1346.3407"
       y1="636.28107"
       x2="1116.426"
       y2="241.60606"
       id="linearGradient10079"
       xlink:href="#linearGradient30537"
       gradientUnits="userSpaceOnUse"
       gradientTransform="matrix(0.938001,0,0,0.938001,-684.4167,24.34372)" />
    <linearGradient
       id="linearGradient34191">
      <stop
         id="stop34193"
         style="stop-color:#adadb0;stop-opacity:1"
         offset="0" />
      <stop
         id="stop34195"
         style="stop-color:#b7b7b9;stop-opacity:0.3877551"
         offset="1" />
    </linearGradient>
    <linearGradient
       x1="529.9986"
       y1="121.45895"
       x2="276.38376"
       y2="52.004044"
       id="linearGradient10081"
       xlink:href="#linearGradient30537"
       gradientUnits="userSpaceOnUse"
       gradientTransform="matrix(0.938001,0,0,0.938001,23.26608,23.10867)" />
    <linearGradient
       id="linearGradient34198">
      <stop
         id="stop34200"
         style="stop-color:#adadb0;stop-opacity:1"
         offset="0" />
      <stop
         id="stop34202"
         style="stop-color:#b7b7b9;stop-opacity:0.3877551"
         offset="1" />
    </linearGradient>
    <radialGradient
       cx="128.43826"
       cy="306.29892"
       r="229.93484"
       fx="128.43826"
       fy="306.29892"
       id="radialGradient10083"
       xlink:href="#linearGradient4385"
       gradientUnits="userSpaceOnUse"
       gradientTransform="matrix(0.958668,0.09901272,-0.172193,1.667216,64.33527,-207.5994)" />
    <linearGradient
       id="linearGradient4385">
      <stop
         id="stop4387"
         style="stop-color:#7d7d7f;stop-opacity:1"
         offset="0" />
      <stop
         id="stop4389"
         style="stop-color:#515056;stop-opacity:1"
         offset="1" />
    </linearGradient>
    <linearGradient
       x1="212.77257"
       y1="563.51562"
       x2="213.06595"
       y2="405.89166"
       id="linearGradient10085"
       xlink:href="#linearGradient2345"
       gradientUnits="userSpaceOnUse"
       gradientTransform="matrix(0.973198,0,0,0.973198,10.05795,9.989903)" />
    <linearGradient
       id="linearGradient2345">
      <stop
         id="stop2347"
         style="stop-color:#4a4a4c;stop-opacity:1"
         offset="0" />
      <stop
         id="stop2349"
         style="stop-color:#626266;stop-opacity:1"
         offset="1" />
    </linearGradient>
    <radialGradient
       cx="695.00012"
       cy="467.92062"
       r="229.93484"
       fx="695.00012"
       fy="467.92062"
       id="radialGradient10087"
       xlink:href="#linearGradient4385"
       gradientUnits="userSpaceOnUse"
       gradientTransform="matrix(0.798143,0.386895,-0.111763,0.230558,55.28328,52.2174)" />
    <linearGradient
       id="linearGradient34213">
      <stop
         id="stop34215"
         style="stop-color:#7d7d7f;stop-opacity:1"
         offset="0" />
      <stop
         id="stop34217"
         style="stop-color:#515056;stop-opacity:1"
         offset="1" />
    </linearGradient>
    <radialGradient
       cx="437.13998"
       cy="149.88368"
       r="229.93484"
       fx="437.13998"
       fy="149.88368"
       id="radialGradient10089"
       xlink:href="#linearGradient24008"
       gradientUnits="userSpaceOnUse"
       gradientTransform="matrix(0.200913,-0.153731,0.284863,0.37229,324.567,133.7805)" />
    <linearGradient
       id="linearGradient24008">
      <stop
         id="stop24010"
         style="stop-color:#8b8b8e;stop-opacity:1"
         offset="0" />
      <stop
         id="stop24012"
         style="stop-color:#58575d;stop-opacity:1"
         offset="1" />
    </linearGradient>
    <radialGradient
       cx="341.69849"
       cy="525.46906"
       r="167.4239"
       fx="341.69849"
       fy="525.46906"
       id="radialGradient10091"
       xlink:href="#linearGradient13037"
       gradientUnits="userSpaceOnUse"
       gradientTransform="matrix(1.056097,0.172711,-0.351233,2.147736,167.2003,-582.0054)" />
    <linearGradient
       id="linearGradient13037">
      <stop
         id="stop13039"
         style="stop-color:#fdfdfe;stop-opacity:1"
         offset="0" />
      <stop
         id="stop13041"
         style="stop-color:#f1f1f2;stop-opacity:0.46938777"
         offset="1" />
    </linearGradient>
    <radialGradient
       cx="341.69849"
       cy="525.46906"
       r="167.4239"
       fx="341.69849"
       fy="525.46906"
       id="radialGradient10093"
       xlink:href="#linearGradient13037"
       gradientUnits="userSpaceOnUse"
       gradientTransform="matrix(0.810157,0.316538,-0.366129,0.937088,259.0648,5.007299)" />
    <linearGradient
       id="linearGradient34228">
      <stop
         id="stop34230"
         style="stop-color:#fdfdfe;stop-opacity:1"
         offset="0" />
      <stop
         id="stop34232"
         style="stop-color:#f1f1f2;stop-opacity:0.46938777"
         offset="1" />
    </linearGradient>
    <radialGradient
       cx="1089.5532"
       cy="620.16174"
       r="11.191786"
       fx="1089.5532"
       fy="620.16174"
       id="radialGradient10095"
       xlink:href="#linearGradient18129"
       gradientUnits="userSpaceOnUse"
       gradientTransform="matrix(1.682822,-0.494758,0.5129154,1.3756763,-1806.9265,293.83202)" />
    <linearGradient
       id="linearGradient18129">
      <stop
         id="stop18131"
         style="stop-color:#8c8c8c;stop-opacity:1"
         offset="0" />
      <stop
         id="stop18137"
         style="stop-color:#8c8c8c;stop-opacity:1"
         offset="0.67307693" />
      <stop
         id="stop18133"
         style="stop-color:#8c8c8c;stop-opacity:0"
         offset="1" />
    </linearGradient>
    <radialGradient
       cx="381.48129"
       cy="362.48032"
       r="350.78738"
       fx="381.48129"
       fy="362.48032"
       id="radialGradient10097"
       xlink:href="#linearGradient22524"
       gradientUnits="userSpaceOnUse"
       gradientTransform="matrix(1.002935,0,0,0.988897,-7.331491,14.60826)" />
    <linearGradient
       id="linearGradient22524">
      <stop
         id="stop22526"
         style="stop-color:#ffffff;stop-opacity:0.40816328"
         offset="0" />
      <stop
         id="stop22532"
         style="stop-color:#dbdbdc;stop-opacity:0"
         offset="0.5" />
      <stop
         id="stop22538"
         style="stop-color:#121212;stop-opacity:0.12244898"
         offset="0.81971157" />
      <stop
         id="stop22536"
         style="stop-color:#121212;stop-opacity:0.35686275"
         offset="0.9063887" />
      <stop
         id="stop22528"
         style="stop-color:#121212;stop-opacity:0.75510204"
         offset="1" />
    </linearGradient>
  </defs>
  <sodipodi:namedview
     id="base"
     pagecolor="#ffffff"
     bordercolor="#ffffff"
     borderopacity="0.0"
     inkscape:pageopacity="0.0"
     inkscape:pageshadow="0"
     inkscape:zoom="0.35"
     inkscape:cx="224.28572"
     inkscape:cy="-11.42857"
     inkscape:document-units="px"
     inkscape:current-layer="layer1"
     showgrid="false"
     fit-margin-top="0"
     fit-margin-left="0"
     fit-margin-right="0"
     fit-margin-bottom="0"
     inkscape:window-width="490"
     inkscape:window-height="416"
     inkscape:window-x="1422"
     inkscape:window-y="0"
     inkscape:window-maximized="0" />
  <metadata
     id="metadata34330">
    <rdf:RDF>
      <cc:Work
         rdf:about="">
        <dc:format>image/svg+xml</dc:format>
        <dc:type
           rdf:resource="http://purl.org/dc/dcmitype/StillImage" />
        <dc:title></dc:title>
      </cc:Work>
    </rdf:RDF>
  </metadata>
  <g
     inkscape:label="Layer 1"
     inkscape:groupmode="layer"
     id="layer1"
     transform="translate(-125.71428,-440.93361)">
    <g
       transform="matrix(0.08760329,0,0,0.08875416,280.13708,471.56231)"
       id="14">
      <g
         transform="matrix(1.3250003,0,0,1.3250003,-1803.3669,-388.0586)"
         id="g9921">
        <g
           transform="translate(0.02815157,-0.1468581)"
           id="g9923">
          <path
             inkscape:connector-curvature="0"
             d="m 295.40887,130.73187 c -26.22447,-23.57194 -50.53667,9.6408 -42.75956,24.48866 -12.63835,-14.78299 -24.75623,36.13396 -35.38724,22.81073 5.87881,-14.75004 -25.49247,7.66987 -15.28543,-16.85687 13.61239,-15.89427 7.10176,-45.60356 32.59055,-40.0814 24.26173,-10.27207 34.76488,-17.71483 59.47068,-25.321513 -13.26691,-15.774261 -49.20345,-7.047368 -60.51389,6.314633 -12.42819,9.54107 -34.27049,2.72726 -21.67659,-12.04324 -26.81909,5.959277 -49.79171,32.52161 -71.92005,48.77159 15.29018,3.78211 -22.20461,21.27939 -17.94952,19.33735 -12.22671,16.2107 -4.67823,19.52779 -24.670383,23.59275 1.598855,12.8361 -33.418722,40.99806 -17.450222,41.41632 4.269305,-22.65148 33.952355,-18.221 10.587685,-8.11271 -10.155844,9.84664 -30.491522,35.88731 -5.276769,14.46938 14.479185,-26.2294 11.931357,19.97589 2.97328,3.26023 -5.936071,13.97321 -16.355076,25.69783 -8.054612,3.10712 -16.331905,8.57173 -14.72753,28.44356 -4.72286,33.31763 -7.051694,9.63959 -10.587749,-9.79453 -14.395463,12.33897 -6.301682,15.64573 11.247774,12.83976 7.883231,5.51436 -0.147127,11.59319 -16.103035,25.86667 5.141236,9.5666 18.593952,5.39216 -27.902617,15.12082 2.690535,10.17506 -0.967757,8.09245 8.742361,15.39432 7.75223,20.97077 -18.846036,-17.04623 -5.892399,14.28571 -2.990391,15.82046 3.712857,12.93803 -23.648922,38.11323 0.308437,41.52335 9.34133,-8.90703 12.650461,17.83922 19.316366,23.76428 7.77103,11.47371 -4.032518,42.32391 23.63092,36.19995 -2.2901,-37.67489 15.89756,0.13377 13.04323,5.78323 24.38639,5.92935 -7.03422,-36.24301 15.76646,-9.59698 10.95743,0.94348 18.95752,4.28552 24.8059,-7.7111 12.89871,16.81263 25.5202,36.79813 6.32109,51.08253 -22.91184,-12.97232 -29.5745,29.56202 -9.39118,32.8615 -18.73514,-13.37687 10.11904,37.35189 9.11162,12.88184 16.14482,-1.28187 14.6985,42.92038 18.68878,13.9926 5.72472,11.71762 15.96706,5.66618 2.80409,11.71358 17.45248,13.41661 16.01823,-13.14663 0.78912,-14.24254 1.90541,-8.29821 18.80451,12.3014 16.43986,-5.57533 14.07443,14.7178 -9.96032,-21.01649 9.26303,-11.37229 20.36319,18.36304 12.62859,1.00209 4.1229,-10.21958 -14.89204,-3.15709 -27.06197,-27.00109 -5.4939,-35.02331 9.1322,-5.2272 28.08889,9.33685 11.84075,-9.3308 11.08183,6.01021 -3.41736,-14.66169 7.91892,-4.61005 2.92176,-15.31709 30.84789,-16.99031 17.94273,2.28739 4.1783,19.15743 -13.45902,0.74701 -12.33897,18.50844 0.24337,28.24691 -19.97641,-12.32075 -17.13746,8.91148 4.62736,12.87559 -27.49863,4.65237 0.006,14.91981 11.61033,13.47036 11.86544,15.26918 13.8866,27.88093 -15.33011,-3.95797 -13.90175,18.47714 -22.11829,12.72461 -3.79441,24.98355 27.34925,17.82805 26.04893,6.16949 15.66203,-3.43134 -4.85391,16.70582 12.47569,4.80971 35.87515,-12.38892 -34.69432,-7.29527 -10.14054,-20.07564 10.02821,-1.64121 -7.76601,-9.31882 14.11681,-1.87153 14.74486,-7.84695 -23.16991,-34.56029 -2.0565,-24.67792 -0.0965,21.14066 29.02616,38.25513 36.19045,33.15234 -11.72595,-12.41934 31.74654,-17.64853 9.05244,-3.67593 12.03135,21.38714 20.68588,-3.7311 17.14652,-8.89332 l 3.52292,0.44791 2.63749,2.27593"
             id="path9925"
             style="fill:none;stroke:none" />
          <path
             inkscape:connector-curvature="0"
             d="M 717.65673,373.05515 C 719.44626,504.39894 634.77992,631.18501 512.32866,682.48246 390.74206,736.50344 238.53635,711.07006 142.07043,620.17285 45.496037,533.73605 7.972542,390.57816 49.558374,268.74743 90.006628,141.25437 213.59367,44.924491 348.93833,36.444826 479.2997,24.906841 611.76778,95.401939 674.31415,208.60537 c 28.44237,49.95514 43.4514,107.17173 43.34258,164.44978 z"
             id="path9927"
             style="fill:#d1d1d2;fill-opacity:1;fill-rule:evenodd;stroke:none;stroke-width:0.96781009px;marker:none;visibility:visible;display:inline;overflow:visible" />
          <path
             inkscape:connector-curvature="0"
             d="m 54.335266,490.77237 c -30.252413,-82.65631 -28.227897,-177.55386 9.634539,-257.2423 7.242299,28.73252 12.91018,58.78446 23.029535,88.17666 14.45093,29.11572 17.76151,67.2195 42.08232,89.39113 29.30287,8.3282 72.76114,15.90234 81.91181,49.22284 -6.04931,20.94257 4.45195,57.39334 26.80023,26.2446 18.68447,-4.78255 42.17266,19.70069 49.42853,34.40876 -18.15526,9.76839 -83.79221,35.61406 -37.34609,56.97433 13.11514,3.98332 33.70926,20.65491 7.78684,11.06056 -22.15412,-2.20836 -62.00097,-14.00126 -75.07563,1.30061 20.9952,5.90865 40.47522,14.40442 47.73048,39.65866 6.19412,29.22666 60.99836,-6.44528 31.54767,26.69352 -19.41028,-0.92874 -41.76899,-15.54264 -44.76738,-28.4831 -13.30143,-1.59338 -32.12648,5.0524 -20.47773,13.95252 -18.45349,-18.09979 -60.68365,-27.93996 -47.10408,-57.89143 -9.93291,-17.46347 -4.80984,24.94899 -21.2711,2.36469 C 115.555,566.3869 61.974734,541.81461 91.193749,514.9716 58.107471,534.98781 77.387528,489.54134 54.335266,490.77237 z"
             id="path9929"
             style="fill:url(#linearGradient10077);fill-opacity:1;fill-rule:evenodd;stroke:none;stroke-width:0.99999928px;marker:none;visibility:visible;display:inline;overflow:visible" />
          <path
             inkscape:connector-curvature="0"
             d="m 600.33783,514.64856 c -22.16025,21.40541 34.41121,42.64014 -7.59115,51.6064 -22.35189,4.72734 -12.07394,16.74148 5.02988,15.45145 -12.84953,4.96486 -34.43355,44.65413 -8.06464,21.80516 10.18917,-15.5591 50.67186,-13.60258 22.17973,4.86038 -15.54144,18.682 -41.3586,24.36398 -63.62717,33.81905 10.84857,22.10417 -29.61246,20.2598 -6.84633,0.0994 8.222,-12.1615 18.38403,-21.22194 30.79835,-28.17172 7.90019,-30.10347 -42.79871,34.04298 -57.55766,1.35651 -45.11197,-5.93902 33.33167,-27.83753 49.98626,-36.39298 -7.67767,-20.14134 44.43903,-22.45988 11.58796,-28.92568 -20.9384,-11.34181 -7.9088,40.7025 -37.20774,32.04823 -31.28221,13.88357 -63.21568,-5.63984 -93.21159,5.67617 23.30084,-12.40027 67.59389,-17.02229 63.97856,-53.52555 -25.62182,-3.77201 -29.04997,44.10069 -55.83155,21.37335 -11.72237,5.3579 -4.04112,-27.04485 -25.00465,-15.44117 -23.17765,0.46805 -10.84185,-21.72729 -10.60057,-28.6331 -14.756,5.76184 -44.68418,18.79038 -27.2046,-9.80469 20.03273,-25.77095 2.41358,-52.69974 -11.3121,-73.47462 12.78264,-5.38935 49.84085,-1.59349 32.3859,-29.86634 -12.84177,-21.3011 10.88106,-27.67483 4.713,-49.05827 23.05722,-26.72374 64.29882,-35.96445 74.37422,-74.64058 26.29169,-15.26321 59.6407,9.35839 40.24902,38.95 -21.13543,40.844 27.31729,62.86683 30.88623,97.82499 5.18081,29.7835 28.72386,58.8562 41.39929,84.59002 22.78426,-6.55683 54.67805,-8.45471 49.35973,24.71599 -14.61972,5.9211 -23.02458,-22.71779 -42.1914,-7.99957 -3.31021,0.64995 -8.0225,-1.33288 -10.67698,1.75714 z"
             id="path9931"
             style="fill:url(#linearGradient10079);fill-opacity:1;fill-rule:evenodd;stroke:none;stroke-width:0.99999928px;marker:none;visibility:visible;display:inline;overflow:visible" />
          <path
             inkscape:connector-curvature="0"
             d="m 450.5929,327.24423 c -0.71443,34.83717 -53.91968,58.57897 -80.24612,32.43638 -30.90309,-33.31109 -42.11896,-85.31599 -18.55776,-125.83695 -2.86836,-42.80998 68.01678,-26.53481 94.49702,-18.46213 39.25178,5.63408 55.3886,56.1954 29.551,83.01597 -2.85727,12.93117 -15.44957,21.15538 -25.24414,28.84673 z"
             id="path9933"
             style="fill:#b3b3b5;fill-opacity:1;fill-rule:evenodd;stroke:none;stroke-width:0.99999928px;marker:none;visibility:visible;display:inline;overflow:visible" />
          <path
             inkscape:connector-curvature="0"
             d="m 523.46075,285.25256 c -11.85539,15.25991 -40.31128,-18.15319 -34.44473,7.52203 28.60126,3.37241 -5.32244,18.46484 -4.37834,31.50739 -11.68409,18.0013 21.93561,-10.62985 19.29525,-20.67555 5.76032,-7.03776 16.76199,-9.58186 19.52782,-18.35387 z"
             id="path9935"
             style="fill:#fbfbfc;fill-opacity:1;fill-rule:evenodd;stroke:none;stroke-width:1px;marker:none;visibility:visible;display:inline;overflow:visible" />
          <path
             inkscape:connector-curvature="0"
             d="m 533.27985,185.82027 c 21.0947,-25.95062 -36.69837,-19.8702 -7.52165,-43.01077 7.29125,-26.47663 -35.28791,-48.787482 -9.52256,-75.197091 C 460.57712,37.38031 393.38723,34.57516 331.69036,43.181903 c -30.81912,-3.084409 -46.92603,21.230809 -51.67075,46.574126 34.11466,-4.897347 67.62801,0.51012 101.99351,2.748425 43.1707,5.775437 86.27931,12.921666 128.56064,23.450916 21.17982,17.18436 -25.67389,21.92928 -8.73308,41.91894 -11.57813,13.50109 16.28866,43.18487 31.43917,27.94596 z"
             id="path9937"
             style="fill:url(#linearGradient10081);fill-opacity:1;fill-rule:evenodd;stroke:none;stroke-width:0.99999928px;marker:none;visibility:visible;display:inline;overflow:visible" />
          <path
             inkscape:connector-curvature="0"
             d="m 344.82224,282.03275 c 19.67198,-3.04759 50.61762,-22.82412 54.93268,-31.14984 -16.55007,2.09567 -73.12337,-28.31037 -28.77861,-38.22513 12.08201,7.86446 41.80871,10.91588 27.16851,21.92693 30.20268,19.1555 33.03429,-27.49806 44.71166,-44.67953 -10.40523,-16.61122 3.70827,-41.50092 -20.14151,-31.55837 1.34285,-22.78878 -27.9544,-5.61598 -28.67958,-31.81649 -31.27045,-4.65162 -59.57779,-28.085994 -89.5198,-6.18112 -24.01757,2.29493 -54.73231,5.4218 -53.96436,32.15544 -16.65582,-7.45833 -28.18015,47.29111 -36.7257,17.74425 -32.55045,12.42965 -0.0381,-30.68174 -0.71101,-42.87252 9.95271,-16.64968 36.6175,-5.99405 51.36307,-21.7525 14.70881,-5.26865 48.5997,-14.385767 12.22635,-17.466231 -21.31018,-8.415151 -62.46068,33.284251 -68.86531,4.489299 -3.74511,-9.372933 -47.33632,24.506352 -60.38475,35.683012 -17.90537,16.84322 17.64615,-2.34505 -6.11318,15.71961 -6.79566,8.92297 -33.15767,14.41752 -24.57461,25.68197 -21.710618,8.83682 -24.609359,30.19108 -42.76651,46.88229 -12.299029,36.04447 29.32903,-39.66446 15.756509,-4.76416 -9.679898,10.74364 -27.536738,35.97266 -5.706099,14.35747 11.467291,-20.22941 18.45037,8.49288 3.145405,8.6668 -4.991807,8.67457 -15.025949,27.09175 -15.428078,4.45306 -10.207909,7.35842 -12.002547,31.88622 3.533291,25.97972 -1.068903,10.83629 -27.269191,19.12617 -14.304545,35.93887 11.17906,-9.49792 6.493981,-28.24132 9.558207,-4.24251 27.346375,5.18255 -8.138695,28.46893 14.894501,43.54152 1.309558,10.95581 -12.258471,6.1489 -8.29448,25.60839 -19.147488,18.61117 13.635422,12.88042 10.914421,21.55042 22.988768,9.63222 6.23253,58.79656 34.059138,55.01861 -1.39962,-24.24849 17.78505,-13.96342 6.11318,0.87331 7.40229,21.33623 31.35857,0.40226 13.56334,-14.88796 6.8549,9.20214 15.14908,11.23346 16.12924,7.90147 9.47261,3.84798 34.73331,-11.33126 25.63692,11.71967 14.45326,15.22927 60.39209,38.79479 61.13247,25.68563 -0.68179,-19.03084 10.0933,-11.15305 18.02797,-19.06576 17.89855,-1.90141 2.48852,27.38785 -4.36656,27.94596 -4.62649,17.03232 -13.37248,8.77259 -18.59629,3.42744 -5.48073,12.24183 26.55193,15.21261 -3.23649,12.29216 -1.5562,18.30365 33.53384,-18.35249 44.7388,-25.38027 24.98731,-21.85945 53.75114,-45.5234 58.31192,-80.29038 16.42202,3.9992 42.5947,-2.20732 13.63704,-10.32813 9.82371,-8.29591 8.91884,-32.75588 23.04203,-10.63136 10.31386,-14.30001 7.83077,-24.0791 -7.54625,-21.88606 -3.70579,-15.33629 17.70593,-22.14032 -2.82998,-23.66788 18.18743,-7.15763 29.48814,-5.89077 52.29518,-12.08459 14.49041,7.96884 50.1705,31.81578 54.1453,6.11318 -6.83689,-12.19424 16.61641,-13.73363 -8.73311,-13.09967 -7.57221,12.24186 -12.05047,-8.88916 2.48039,-5.86395 -26.9492,1.65582 -10.77227,-30.57835 2.33337,-10.94713 -6.45545,13.37909 13.70295,15.87708 15.27239,2.83809 10.44602,-5.35014 -2.08536,-18.85152 -3.19334,-2.68508 -13.72522,4.44346 -16.95799,-14.74635 -0.9909,-2.70925 -0.24565,-19.53489 -17.24962,0.62899 -32.15862,-14.73435 -1.69566,19.87459 -8.14924,8.00872 -24.77769,6.12282 5.21043,-22.57404 -23.67889,-11.00977 -3.92649,-2.1522 -17.94802,5.91322 -17.78235,20.83612 -12.90158,37.18326 -22.95123,15.03313 2.46259,-38.75885 -27.72204,-21.0252 -15.85593,3.49584 -4.83152,-23.27049 -26.92826,-8.88883 l -6.25757,-2.46421 2e-5,1e-5 z M 252.14436,404.9968 c -12.0817,7.80076 -1.89438,43.58162 -15.76339,23.3205 -19.13083,3.32979 -0.61211,-42.3629 6.19435,-18.37119 1.6582,-3.77887 5.82667,-5.2332 9.56904,-4.94931 z"
             id="path9939"
             style="fill:url(#radialGradient10083);fill-opacity:1;fill-rule:evenodd;stroke:none" />
          <path
             inkscape:connector-curvature="0"
             d="m 177.14647,431.36896 c 16.51815,7.29043 -2.61611,20.1027 17.39763,21.47445 -0.28448,15.7372 1.51982,35.00329 -21.76419,29.17761 -13.87346,13.27173 -14.93568,22.21375 -3.37276,37.26116 4.48725,17.19659 27.63022,3.89866 26.40198,27.13547 11.36854,2.15352 16.21888,2.77332 21.26904,13.71466 1.14592,-11.4408 2.65678,-15.5372 -10.62437,-19.54516 4.81903,-3.52162 28.74562,0.92517 16.70309,-15.55828 13.08706,-5.71725 13.84557,16.35538 25.6011,2.40434 -13.11104,-11.28954 -18.46403,-21.78957 -27.94596,-20.95948 -14.52048,-26.51356 13.07779,-30.26921 28.81927,-30.56589 -11.37927,-5.37069 -1.41308,-20.66647 7.50459,-15.90597 7.80419,-24.77537 24.79068,23.25021 1.89043,17.24969 0.63793,14.39709 -14.63541,24.03136 -17.16571,7.95948 -17.55431,18.30492 8.94706,31.2243 13.8223,51.70918 -13.89123,-3.40529 -17.34717,18.16509 -22.64452,14.09239 -3.29981,32.38515 36.82345,-10.85295 26.85892,13.2641 9.41824,-2.55035 13.62291,-2.51146 20.56661,-13.39109 -14.7654,2.12658 -40.99196,-4.81686 -15.98633,-12.97268 -4.19813,-4.60288 36.84404,12.49755 31.44813,3.39041 16.036,-5.44713 41.23768,-8.67759 47.51985,-5.20291 4.34902,-15.02398 13.04854,13.28868 17.85295,-7.37281 -5.15369,-10.58758 15.77151,-16.46826 -7.74319,-22.2539 -3.27988,-4.69342 -4.59079,-29.02673 13.09967,-36.67907 4.45512,-11.36651 7.44526,-30.06879 -8.73312,-16.79886 -24.05405,-6.32068 -1.49323,-24.24739 -0.48564,-9.95296 6.13283,-14.38635 -45.94057,-45.77737 -27.15898,-35.34942 -36.73229,16.84372 -16.55755,-64.08023 -56.22514,-43.37149 -22.90604,11.64193 -16.70133,36.93122 -23.75071,54.01411 -14.00113,2.74524 5.05106,35.89298 -11.25327,14.66778 -10.0376,-10.71525 -56.82299,-31.4737 -61.90167,-1.63486 z"
             id="path9941"
             style="fill:url(#linearGradient10085);fill-opacity:1;fill-rule:evenodd;stroke:none" />
          <path
             inkscape:connector-curvature="0"
             d="m 614.13202,270.94354 c 14.00285,9.03491 17.89861,-5.60923 15.91525,13.80494 9.90829,-11.54654 27.21953,-12.62157 17.4118,6.18953 -11.10673,0.61931 17.20338,14.25951 -0.30518,14.09668 13.04713,12.48312 -7.50964,32.11902 -10.08195,6.62318 -13.18944,-11.06081 -16.97775,-25.52839 -22.93992,-40.71433 z"
             id="path9943"
             style="fill:#e5e5e6;fill-opacity:1;fill-rule:evenodd;stroke:none;stroke-width:1px;marker:none;visibility:visible;display:inline;overflow:visible" />
          <path
             inkscape:connector-curvature="0"
             d="m 432.84906,205.90643 c 26.36788,0.20082 18.55023,-52.42944 53.27199,-29.69259 10.66527,13.11645 51.24436,12.07711 20.08615,-4.36655 -20.90769,-13.56651 18.51468,-19.07234 12.39131,-6.35252 -13.96117,3.22905 10.95762,27.50843 17.02059,7.79731 1.67182,11.92555 6.08845,20.06256 5.22172,34.97984 21.00353,-3.10265 11.65229,14.43431 20.93664,23.78414 -14.69395,10.34414 10.88882,27.61933 -4.3471,39.26763 4.81029,6.14597 19.52896,-2.21776 10.80647,12.25185 22.57716,9.85863 6.79927,-24.26652 25.68995,-7.96022 -7.42402,-14.95527 -3.87148,-34.6714 10.09129,-15.56359 -14.62374,16.22934 26.7036,10.5079 4.36656,25.32602 4.33643,17.27823 7.84738,27.1966 24.88936,30.56589 5.12057,7.67259 7.11683,18.3717 22.26764,21.08307 0.62003,15.21028 15.08681,35.22781 29.76061,33.45901 -1.15059,25.05806 12.03239,60.04453 -7.05271,86.06104 -8.40072,12.4239 -14.58589,41.18601 -23.5794,33.18584 0.65805,18.73773 -23.85898,26.97829 -21.50288,5.20892 5.38131,-20.18688 27.64782,-11.70721 32.52339,-33.58699 -16.32087,0.0722 -25.54122,-9.24548 -38.28833,2.03596 -3.58779,-8.29762 -1.44657,-30.76598 6.87495,-21.89602 -16.56776,11.7412 22.39214,5.46965 -2.10775,-7.92633 -15.76005,18.31084 -26.97499,-10.45771 -4.57203,-2.3474 -23.09124,-9.8671 2.38606,-35.00821 1.12673,-8.21156 10.22381,-15.64422 -16.70599,-25.49836 -5.84299,-31.26134 6.70087,-13.92876 21.02075,-57.65391 19.56254,-18.16566 8.65798,-8.26087 4.89689,-39.3555 -3.3853,-21.66298 -20.53777,-2.77459 2.07143,38.02983 -20.50273,24.3033 8.34154,18.61824 -17.0157,-4.12087 -23.58047,3.11009 -0.88526,-14.27798 -17.23186,-20.96609 -10.17004,-0.51052 -15.13024,14.6493 -23.66926,63.45389 7.24882,62.3068 25.8879,14.39082 3.55439,45.01433 9.34409,69.56319 -14.59704,20.55272 2.22961,-27.61656 -22.78488,-11.41068 -17.19793,-25.59994 7.90177,24.54105 -13.02088,3.55088 -6.77396,-4.71323 14.22156,-17.27092 -4.36655,-9.60643 -13.37216,-19.59664 3.21771,-35.64567 17.14203,-40.1178 -8.21495,-24.62708 -25.10565,15.37828 -24.37721,-16.99481 -10.26765,-6.40554 -22.87098,2.03318 -17.21753,-20.61209 -19.47089,5.28277 36.24727,-31.75959 -1.59351,-28.71878 -4.06171,8.56739 -18.53472,-4.23834 -26.16468,-6.90164 4.86038,-14.56068 14.83684,14.2091 13.78519,-8.91845 -13.06223,-22.48814 -11.54032,21.37086 -15.71033,-8.97257 -7.85118,-14.22499 11.76914,-21.7397 -5.24913,-35.56631 9.44227,-2.25252 -15.73611,-31.77463 6.98649,-20.95947 2.778,-7.20103 14.44907,-19.09012 29.69258,-10.47973 6.02664,-16.49455 -19.72483,4.47756 -13.34964,-11.70902 -24.55662,15.51986 -55.94585,-26.58089 -61.75513,-3.13728 -0.62312,-11.91932 -10.55674,-16.7747 -20.21965,-2.79982 -11.81911,0.90421 -26.60227,-14.97101 -4.58485,-8.87647 -7.37007,-18.29609 20.68189,-49.18578 -5.45541,-49.20455 -1.30132,-4.25141 -3.50729,-9.20306 -0.30598,-13.35061 z"
             id="path9945"
             style="fill:url(#radialGradient10087);fill-opacity:1;fill-rule:evenodd;stroke:none;stroke-width:1px;marker:none;visibility:visible;display:inline;overflow:visible" />
          <path
             inkscape:connector-curvature="0"
             d="m 689.6026,274.02469 c 2.83292,6.23747 10.62071,30.50654 0.44045,26.23592 9.24948,28.35991 -27.38147,29.41152 -35.24689,5.96102 -5.9376,-8.86327 -12.70354,-16.54751 -2.15698,-15.10392 -12.04193,-15.12003 -11.21892,-55.67217 20.37048,-41.54572 8.56527,8.09596 13.5053,19.21737 20.08617,28.81927"
             id="path9947"
             style="fill:#504f55;fill-opacity:1;fill-rule:evenodd;stroke:none;stroke-width:1px;marker:none;visibility:visible;display:inline;overflow:visible" />
          <path
             inkscape:connector-curvature="0"
             d="m 523.6734,108.09556 c 2.99244,21.43537 -9.67185,5.34477 -22.94531,11.27261 3.83567,14.0257 -15.46479,-9.7017 -14.21989,7.92554 -14.60354,23.07378 -49.03567,1.921 -64.83354,-16.34697 5.30806,-9.44178 -23.51237,9.05943 -21.13812,-11.584289 -24.46871,-15.264122 -63.75992,8.034339 -75.97808,1.746619 33.40173,-14.509114 -31.92998,4.57462 -9.40218,-7.836832 -13.0519,-3.750185 0.27611,-14.626785 -21.36727,-10.32582 14.44429,-9.155215 43.33238,-0.143504 63.70739,-15.178746 -0.31975,30.005855 37.36284,-3.701893 44.82317,13.507876 9.28543,2.212592 39.50746,29.062122 30.60316,7.446297 13.8336,-2.662989 23.19016,12.509735 35.36717,2.015039 16.93994,-2.023243 36.76107,9.620366 54.55724,11.615246 l 0.82629,5.74343 -3e-5,0 z"
             id="path9949"
             style="fill:url(#radialGradient10089);fill-opacity:1;fill-rule:evenodd;stroke:none;stroke-width:1px;marker:none;visibility:visible;display:inline;overflow:visible" />
          <path
             inkscape:connector-curvature="0"
             d="m 67.804947,382.75198 c -23.710009,19.81603 17.429006,44.75956 8.250352,8.37693 -0.923588,-3.96582 -3.937747,-7.86278 -8.250352,-8.37693 z"
             id="path9951"
             style="fill:#4f4f4f;fill-opacity:1;fill-rule:evenodd;stroke:none;stroke-width:1px;marker:none;visibility:visible;display:inline;overflow:visible" />
          <path
             inkscape:connector-curvature="0"
             d="m 374.77363,110.93376 c -13.37282,17.28218 -30.44586,-12.515077 -2.81467,-3.55022 l 2.05937,1.59622 0.75531,1.954 -10e-6,0 z"
             id="path9953"
             style="fill:#4d4d53;fill-opacity:1;fill-rule:evenodd;stroke:none;stroke-width:1px;marker:none;visibility:visible;display:inline;overflow:visible" />
          <path
             inkscape:connector-curvature="0"
             d="m 387.43689,368.34232 c 4.4444,-23.02376 9.72555,-5.62553 20.42245,-8.61681 -18.96807,-10.11393 4.39108,-21.77162 5.96443,-1.5151 0.20562,-25.02721 17.42082,-5.50713 7.67225,9.2586 7.06468,11.61352 -18.58428,13.64993 -26.35581,21.71031 -9.41451,-3.18918 -15.60324,-12.06616 -7.70332,-20.837 z"
             id="path9955"
             style="fill:#5d5c63;fill-opacity:1;fill-rule:evenodd;stroke:none;stroke-width:1px;marker:none;visibility:visible;display:inline;overflow:visible" />
          <path
             inkscape:connector-curvature="0"
             d="m 575.19879,184.94695 c 21.33771,1.1168 0.37114,18.61753 -6.58701,3.99107 7.37939,9.76674 -11.06624,4.84401 0.47384,13.47516 -23.27871,0.36227 -13.31555,-23.2373 -34.05914,-20.08615 7.21629,-9.77731 21.4239,-8.80732 13.16774,-19.25935 13.13179,0.45392 24.85251,3.87888 16.8114,15.51301 l 3.55481,2.59322 6.63838,3.77304 -2e-5,0 z"
             id="path9957"
             style="fill:#5f5e64;fill-opacity:1;fill-rule:evenodd;stroke:none;stroke-width:1px;marker:none;visibility:visible;display:inline;overflow:visible" />
          <path
             inkscape:connector-curvature="0"
             d="m 700.95563,329.91663 c 0.45174,14.95806 -6.55853,41.07615 -4.36656,55.42969 15.47743,18.44942 -4.77427,-42.96356 11.35304,-24.86379 -2.72687,-9.2248 7.41119,-22.92352 -6.98648,-30.5659 z"
             id="path9959"
             style="fill:#5f5e64;fill-opacity:1;fill-rule:evenodd;stroke:none;stroke-width:1px;marker:none;visibility:visible;display:inline;overflow:visible" />
          <path
             inkscape:connector-curvature="0"
             d="m 624.97754,479.25287 c -14.73463,11.19016 16.92017,26.93773 -10.46087,33.43695 10.74324,-7.19618 -4.12019,-44.6104 10.46087,-33.43696 l 0,10e-6 z"
             id="path9961"
             style="fill:#69686f;fill-opacity:1;fill-rule:evenodd;stroke:none;stroke-width:1px;marker:none;visibility:visible;display:inline;overflow:visible" />
          <path
             inkscape:connector-curvature="0"
             d="m 611.87787,152.63445 c -7.73588,-4.24783 -41.87765,-40.45493 -30.68926,-18.35651 10.07245,-0.84716 7.54037,35.65514 16.71629,22.72306 -16.47096,-18.58782 4.64848,-6.00789 13.97297,-4.36656 l 0,10e-6 z"
             id="path9963"
             style="fill:#5f5e64;fill-opacity:1;fill-rule:evenodd;stroke:none;stroke-width:1px;marker:none;visibility:visible;display:inline;overflow:visible" />
          <path
             inkscape:connector-curvature="0"
             d="m 621.48431,151.32446 c -6.89384,-16.32952 -13.8481,1.96169 -1e-5,1e-5 l 1e-5,-1e-5 z"
             id="path9965"
             style="fill:#5f5e64;fill-opacity:1;fill-rule:evenodd;stroke:none;stroke-width:1px;marker:none;visibility:visible;display:inline;overflow:visible" />
          <path
             inkscape:connector-curvature="0"
             d="m 179.58879,597.1499 c -19.73696,-13.71923 -15.58838,18.00662 1.43466,5.44143 l -1.43466,-5.44145 0,2e-5 z"
             id="path9967"
             style="fill:#56555b;fill-opacity:1;fill-rule:evenodd;stroke:none;stroke-width:1px;marker:none;visibility:visible;display:inline;overflow:visible" />
          <path
             inkscape:connector-curvature="0"
             d="m 180.4621,578.81036 c 13.64554,-8.62173 -12.05873,-32.47509 13.68441,-20.88648 9.4535,-1.93279 -0.142,16.20458 16.97228,6.38415 -5.6199,11.6012 -0.42241,32.5452 -15.64451,10.15473 -9.17083,-10.13927 -5.88268,5.25352 -15.01218,4.3476 z"
             id="path9969"
             style="fill:#6b6a71;fill-opacity:1;fill-rule:evenodd;stroke:none;stroke-width:1px;marker:none;visibility:visible;display:inline;overflow:visible" />
          <path
             inkscape:connector-curvature="0"
             d="m 223.25435,571.82385 c 14.52325,28.52542 14.10752,-22.38614 0,0 z"
             id="path9971"
             style="fill:#6b6a71;fill-opacity:1;fill-rule:evenodd;stroke:none;stroke-width:1px;marker:none;visibility:visible;display:inline;overflow:visible" />
          <path
             inkscape:connector-curvature="0"
             d="m 251.20032,568.33063 c 7.71084,9.57286 20.9317,8.66901 0,0 z"
             id="path9973"
             style="fill:#6b6a71;fill-opacity:1;fill-rule:evenodd;stroke:none;stroke-width:1px;marker:none;visibility:visible;display:inline;overflow:visible" />
          <path
             inkscape:connector-curvature="0"
             d="m 259.93344,586.6701 c -25.70058,4.19809 48.09692,15.22418 10.73729,0.96605 l -5.49743,-0.96602 -5.23987,0 1e-5,-3e-5 z"
             id="path9975"
             style="fill:#6b6a71;fill-opacity:1;fill-rule:evenodd;stroke:none;stroke-width:1px;marker:none;visibility:visible;display:inline;overflow:visible" />
          <path
             inkscape:connector-curvature="0"
             d="m 193.56177,608.50293 c -14.9945,1.49904 4.5318,20.77124 0,0 z"
             id="path9977"
             style="fill:#6b6a71;fill-opacity:1;fill-rule:evenodd;stroke:none;stroke-width:1px;marker:none;visibility:visible;display:inline;overflow:visible" />
          <path
             inkscape:connector-curvature="0"
             d="m 142.90971,554.3576 c -20.37625,0.49296 11.45817,17.53009 0,0 z"
             id="path9979"
             style="fill:#6b6a71;fill-opacity:1;fill-rule:evenodd;stroke:none;stroke-width:1px;marker:none;visibility:visible;display:inline;overflow:visible" />
          <path
             inkscape:connector-curvature="0"
             d="m 142.90971,577.06372 c -1.52009,-19.96193 -19.7867,-2.48146 -9.5425,1.23961 13.20236,-11.42108 12.4189,19.82322 12.73438,1.69282 l -3.19187,-2.93243 -1e-5,0 z"
             id="path9981"
             style="fill:#6b6a71;fill-opacity:1;fill-rule:evenodd;stroke:none;stroke-width:1px;marker:none;visibility:visible;display:inline;overflow:visible" />
          <path
             inkscape:connector-curvature="0"
             d="m 152.51614,512.43866 c -7.60136,7.23274 12.28903,13.39725 11.6402,24.02879 1.85102,-8.80106 -5.25639,-18.52499 -11.6402,-24.02879 z"
             id="path9983"
             style="fill:#6b6a71;fill-opacity:1;fill-rule:evenodd;stroke:none;stroke-width:1px;marker:none;visibility:visible;display:inline;overflow:visible" />
          <path
             inkscape:connector-curvature="0"
             d="m 80.904617,461.78662 c 18.005495,29.68011 -18.396903,-38.5005 -8.733111,-6.98648 l 3.958936,3.38384 4.774176,3.60265 -10e-7,-10e-6 z"
             id="path9985"
             style="fill:#6b6a71;fill-opacity:1;fill-rule:evenodd;stroke:none;stroke-width:1px;marker:none;visibility:visible;display:inline;overflow:visible" />
          <path
             inkscape:connector-curvature="0"
             d="m 130.68336,451.30688 c -5.12489,11.77422 -3.53407,30.90404 6.98648,9.60644 l -2.55709,-3.82133 -4.42939,-5.78509 0,-2e-5 z"
             id="path9987"
             style="fill:#6b6a71;fill-opacity:1;fill-rule:evenodd;stroke:none;stroke-width:1px;marker:none;visibility:visible;display:inline;overflow:visible" />
          <path
             inkscape:connector-curvature="0"
             d="m 53.395313,371.83557 c -12.533602,20.07571 14.349747,11.81354 0,0 z"
             id="path9989"
             style="fill:#56555b;fill-opacity:1;fill-rule:evenodd;stroke:none;stroke-width:1px;marker:none;visibility:visible;display:inline;overflow:visible" />
          <path
             inkscape:connector-curvature="0"
             d="m 446.82199,162.24086 c -1.16305,24.47024 -33.4693,-14.27203 -25.95666,20.55932 7.92324,8.47248 23.7176,49.71704 0.63072,38.82585 -19.83146,-18.53643 -28.20813,-5.75386 -20.08617,10.47973 -20.46915,-9.36959 -29.16831,-39.09897 3.17908,-33.54018 15.55568,-14.69269 -27.23885,10.49514 -10.41659,-14.39673 -11.5479,-2.99788 -44.99943,-23.40988 -11.10202,-24.54792 9.01991,-3.28166 4.01676,-21.40448 20.08609,-7.8598 16.99568,-1.96074 24.82268,-17.99506 28.81935,6.9865 7.78814,-2.55469 8.96189,-17.06467 14.8462,3.49323 z m -51.92813,45.41222 c -14.25815,17.64375 -14.25823,-17.64375 0,0 z m 23.98227,-20.74117 c -8.49056,16.58695 -8.49053,-16.58698 0,0 z"
             id="path9991"
             style="fill:#a8a7aa;fill-opacity:1;fill-rule:evenodd;stroke:none;stroke-width:1px;marker:none;visibility:visible;display:inline;overflow:visible" />
          <path
             inkscape:connector-curvature="0"
             d="m 475.65484,118.42256 c -14.7583,20.04874 -33.59201,-19.352478 -5.17698,-8.11918 2.86723,1.50372 5.89789,4.51793 5.17698,8.11918 z"
             id="path9993"
             style="fill:#959595;fill-opacity:1;fill-rule:evenodd;stroke:#b9b9b9;stroke-width:17.00698662;stroke-linecap:butt;stroke-linejoin:miter;stroke-miterlimit:4;stroke-opacity:1;stroke-dasharray:none;stroke-dashoffset:0;marker:none;visibility:visible;display:inline;overflow:visible" />
          <path
             inkscape:connector-curvature="0"
             d="m 554.05544,210.04658 c -28.6281,4.11822 -12.03992,-42.35819 2.34339,-10.617 1.14873,3.49756 1.19826,8.32868 -2.34339,10.617 z"
             id="path9995"
             style="fill:#a7a7a7;fill-opacity:1;fill-rule:evenodd;stroke:#cacaca;stroke-width:14.82483387;stroke-linecap:butt;stroke-linejoin:miter;stroke-miterlimit:4;stroke-opacity:1;stroke-dasharray:none;stroke-dashoffset:0;marker:none;visibility:visible;display:inline;overflow:visible" />
          <path
             inkscape:connector-curvature="0"
             d="m 474.98816,146.6814 c -15.68252,9.83955 -16.52231,-22.89935 -1.03079,-7.1094 1.45395,1.85133 2.5704,4.80127 1.03079,7.1094 z"
             id="path9997"
             style="fill:#959595;fill-opacity:1;fill-rule:evenodd;stroke:#b9b9b9;stroke-width:23.05947495;stroke-linecap:butt;stroke-linejoin:miter;stroke-miterlimit:4;stroke-opacity:1;stroke-dasharray:none;stroke-dashoffset:0;marker:none;visibility:visible;display:inline;overflow:visible" />
          <path
             inkscape:connector-curvature="0"
             d="m 679.96875,446.09505 c -15.04945,-19.77255 23.12885,-35.40474 8.10023,-4.6975 -1.84337,3.04384 -5.04992,6.05068 -8.10023,4.6975 z"
             id="path9999"
             style="fill:#cacaca;fill-opacity:1;fill-rule:evenodd;stroke:none;stroke-width:1.9246887;marker:none;visibility:visible;display:inline;overflow:visible" />
          <path
             inkscape:connector-curvature="0"
             d="m 653.40278,511.37129 c -11.7023,-21.92022 28.48092,-31.26145 8.74591,-3.34507 -2.30536,2.71077 -5.95054,5.16755 -8.74591,3.34507 z"
             id="path10001"
             style="fill:#cdcdcd;fill-opacity:1;fill-rule:evenodd;stroke:none;stroke-width:1.9246881;marker:none;visibility:visible;display:inline;overflow:visible" />
          <path
             inkscape:connector-curvature="0"
             d="m 459.85656,293.89787 c -7.59857,17.58768 -14.18178,-16.49327 0,0 z"
             id="path10003"
             style="fill:#e7e6e8;fill-opacity:1;fill-rule:evenodd;stroke:#a9a9a9;stroke-width:20.38188362;stroke-linecap:butt;stroke-linejoin:miter;stroke-miterlimit:4;stroke-opacity:1;stroke-dasharray:none;stroke-dashoffset:0;marker:none;visibility:visible;display:inline;overflow:visible" />
          <path
             inkscape:connector-curvature="0"
             d="m 464.86868,476.45166 c -18.75896,13.54451 5.81903,14.77327 0,0 z"
             id="path10005"
             style="fill:#ececed;fill-opacity:1;fill-rule:evenodd;stroke:none;stroke-width:1px;marker:none;visibility:visible;display:inline;overflow:visible" />
          <path
             inkscape:connector-curvature="0"
             d="m 501.84738,541.52515 c 38.18217,-5.71442 -43.5401,30.95688 -5.0407,4.37294 l 2.13649,-2.3419 2.90421,-2.03105 0,1e-5 z"
             id="path10007"
             style="fill:url(#radialGradient10091);fill-opacity:1;fill-rule:evenodd;stroke:none;stroke-width:1px;marker:none;visibility:visible;display:inline;overflow:visible" />
          <path
             inkscape:connector-curvature="0"
             d="m 545.69171,392.70178 c 9.19597,13.53241 -38.72613,30.17259 -8.91501,46.22523 17.81458,1.75412 20.70661,17.96174 36.00423,4.00598 19.62802,20.7142 -29.4869,18.26505 -13.0497,43.64827 13.84144,19.73433 -32.16462,53.59833 -37.03282,43.50171 14.45276,-12.59627 43.03466,-27.40353 15.80633,-42.51001 5.20131,-16.34116 5.49267,-26.23066 -6.18913,-21.65392 1.49219,-30.51459 -30.4699,-16.62593 -38.73019,-2.87198 -7.33515,-15.76861 -0.43636,-33.79253 17.51409,-20.9822 8.35481,-16.49626 -22.46867,-21.29326 0.27353,-38.07622 6.97164,-13.994 24.89845,3.74699 34.31867,-11.28686 z"
             id="path10009"
             style="fill:#ececed;fill-opacity:1;fill-rule:evenodd;stroke:none;stroke-width:1px;marker:none;visibility:visible;display:inline;overflow:visible" />
          <path
             inkscape:connector-curvature="0"
             d="m 480.41504,363.09726 c -25.18448,-30.60642 -30.2152,25.56516 -10.091,27.59695 7.46842,-9.52548 17.33665,-13.41852 10.091,-27.59695 z"
             id="path10011"
             style="fill:#ececed;fill-opacity:1;fill-rule:evenodd;stroke:none;stroke-width:1px;marker:none;visibility:visible;display:inline;overflow:visible" />
          <path
             inkscape:connector-curvature="0"
             d="m 460.4733,422.34296 c 0.60184,9.46214 -12.15079,20.54805 -15.94274,30.36552 -11.70639,1.0476 6.84691,-27.33481 -0.5218,-37.68662 2.09566,-16.8702 13.05682,3.58185 16.46454,7.3211 z"
             id="path10013"
             style="fill:#ececed;fill-opacity:1;fill-rule:evenodd;stroke:none;stroke-width:1px;marker:none;visibility:visible;display:inline;overflow:visible" />
          <path
             inkscape:connector-curvature="0"
             d="m 438.2424,482.86035 c -10.08027,13.07246 -37.4967,-17.00308 -11.80316,-0.41007 l 4.85603,0.41006 6.94712,0 10e-6,10e-6 z"
             id="path10015"
             style="fill:#ececed;fill-opacity:1;fill-rule:evenodd;stroke:none;stroke-width:1px;marker:none;visibility:visible;display:inline;overflow:visible" />
          <path
             inkscape:connector-curvature="0"
             d="m 328.32306,596.48486 c -18.18047,-25.26614 -39.92387,-47.98163 -51.68086,-77.34147 -7.81227,-22.47583 -19.26301,-1.33626 -1.44053,5.64628 5.35186,23.25877 39.35928,62.68152 44.70131,67.10574 -6.60524,-19.42457 -51.6632,-12.23702 -14.24965,-6.95868 34.5672,15.21001 -41.49901,-3.72066 -0.99156,10.4044 -4.20477,-1.7063 -29.62775,-0.74281 -5.60283,4.33574 24.38408,2.42064 -20.15731,15.31794 6.66788,17.16284 -15.86645,14.67342 14.0384,-3.79012 7.85213,8.13229 12.79809,6.91788 -31.44129,46.85885 -28.51761,53.49175 20.27207,-9.82032 31.53953,-45.27397 44.48958,-50.06297 2.99839,15.33537 -4.02611,43.79147 7.28038,49.5519 12.27519,-6.31113 -1.40602,-47.07991 13.57609,-22.55647 -3.07044,-25.18084 16.42214,24.6365 9.80486,-4.46007 -15.1988,-24.88933 19.78473,-10.12622 3.19523,4.6151 13.58025,13.39015 24.1853,-8.24555 41.50204,-4.85114 17.77577,-7.39453 -10.96867,-12.37122 12.28597,-8.02991 -7.41519,-12.84357 35.24154,2.76409 7.7409,-11.97474 0.62884,-11.5645 -13.28201,-0.41503 -16.49585,-7.10708 -3.05516,15.83584 -13.2564,11.958 -3.67699,-5.5873 -2.60007,-4.39277 -32.49332,0.66177 -7.74903,-2.96259 15.55733,9.53429 53.22606,-13.32419 32.23404,-16.94564 -2.30812,12.21681 -54.51047,5.81318 -18.45431,3.6559 16.78576,-5.4136 11.4655,-16.52777 27.44814,-15.76184 16.6101,-2.93557 58.19882,-15.15284 54.73377,-24.94907 -17.57198,11.15748 -63.32891,29.05964 -69.55437,20.6264 18.22314,5.63291 40.66304,-18.5661 8.99412,-5.22064 -5.37594,-13.19855 42.67291,-25.3078 33.35764,-42.52045 19.52661,3.80469 30.16584,-29.74993 8.62552,-15.59534 -7.59529,25.34559 -37.86051,-12.27256 -33.16531,13.73835 7.40294,2.9812 11.27504,19.08206 18.13612,6.77531 2.00939,17.62032 -30.837,17.32595 -27.9353,4.85269 -11.23639,0.17328 -10.18113,-11.36338 -21.49366,-10.67256 11.39973,-7.24169 40.00587,-61.62559 18.01386,-29.59788 -2.79705,15.55906 -20.24684,18.01485 -16.22818,4.75863 -8.6794,10.82762 -8.70911,52.52667 -18.51522,20.5858 -21.75018,23.82575 3.12576,-27.8549 -13.02515,-23.06031 -16.46399,-20.35881 15.97617,36.24541 -6.68756,14.18071 -9.55196,13.60877 -15.95601,16.51357 -26.39323,14.61738 -4.50457,7.8921 -22.94055,-6.92796 -30.33659,3.76697 -27.36126,-4.97343 17.64042,29.73302 6.86384,25.25499 17.58714,34.21762 -29.04238,-16.72385 -28.4305,-33.38392 -16.4769,-5.29998 -6.18878,-52.29388 -22.97886,-36.28074 12.24888,20.8493 21.32499,45.82666 34.47991,67.23958 14.41539,12.00867 26.5733,34.14873 5.87579,9.13512 -7.62849,-10.17392 -25.64569,-29.19516 -8.37435,-6.32391 8.49194,10.2134 18.91559,20.58868 24.11838,32.57085 z"
             id="path10017"
             style="fill:url(#radialGradient10093);fill-opacity:1;fill-rule:evenodd;stroke:none;stroke-width:1px;marker:none;visibility:visible;display:inline;overflow:visible" />
          <path
             inkscape:connector-curvature="0"
             d="m 523.12726,157.76315 c 2.42174,33.71593 -16.09457,62.22429 -21.11445,95.16383 -0.45969,29.21259 13.53341,-34.93585 20.33907,-45.03768 4.34015,-26.52108 9.02874,-66.0076 11.56837,-85.01733 -2.98605,11.6758 -10.92999,22.90587 -10.79299,34.89118 z"
             id="path10019"
             style="fill:#e3e3e3;fill-opacity:0.44642861;fill-rule:evenodd;stroke:none;stroke-width:1px;marker:none;visibility:visible;display:inline;overflow:visible" />
          <path
             inkscape:connector-curvature="0"
             d="m 336.50615,544.61266 c -23.78864,26.61776 -23.78858,-26.61785 0,0 z"
             id="path10021"
             style="fill:#54535a;fill-opacity:1;fill-rule:evenodd;stroke:none;stroke-width:0.18304136px;marker:none;visibility:visible;display:inline;overflow:visible" />
          <path
             inkscape:connector-curvature="0"
             d="m 512.34576,372.94101 c -7.59857,17.58768 -14.18178,-16.49327 0,0 z"
             id="path10023"
             style="fill:#e7e6e8;fill-opacity:1;fill-rule:evenodd;stroke:#a9a9a9;stroke-width:20.38188362;stroke-linecap:butt;stroke-linejoin:miter;stroke-miterlimit:4;stroke-opacity:1;stroke-dasharray:none;stroke-dashoffset:0;marker:none;visibility:visible;display:inline;overflow:visible" />
          <path
             inkscape:connector-curvature="0"
             d="m 537.2994,291.42781 c -5.87329,17.58768 -10.96177,-16.49327 0,0 z"
             id="path10025"
             style="fill:#e7e6e8;fill-opacity:1;fill-rule:evenodd;stroke:#a9a9a9;stroke-width:20.38186646;stroke-linecap:butt;stroke-linejoin:miter;stroke-miterlimit:4;stroke-opacity:1;stroke-dasharray:none;stroke-dashoffset:0;marker:none;visibility:visible;display:inline;overflow:visible" />
          <path
             inkscape:connector-curvature="0"
             d="m 346.20566,227.50521 c -7.57353,16.89377 -26.45968,-9.86169 -4.80666,-5.33873 2.23744,0.73163 4.80457,2.56423 4.80666,5.33873 z"
             id="path10027"
             style="opacity:0.65803109;fill:#959595;fill-opacity:1;fill-rule:evenodd;stroke:#b9b9b9;stroke-width:23.05947495;stroke-linecap:butt;stroke-linejoin:miter;stroke-miterlimit:4;stroke-opacity:1;stroke-dasharray:none;stroke-dashoffset:0;marker:none;visibility:visible;display:inline;overflow:visible" />
          <path
             inkscape:connector-curvature="0"
             d="m 317.44531,504.78238 c -10.18647,24.57596 -19.01178,-23.0467 0,0 z"
             id="path10029"
             style="fill:#94939a;fill-opacity:0.65476194;fill-rule:evenodd;stroke:none;stroke-width:2.48242378;marker:none;visibility:visible;display:inline;overflow:visible" />
          <path
             inkscape:connector-curvature="0"
             d="m 305.71201,450.74898 c -10.18647,24.57596 -19.01178,-23.0467 0,0 z"
             id="path10031"
             style="fill:#94939a;fill-opacity:0.65476194;fill-rule:evenodd;stroke:none;stroke-width:2.48242378;marker:none;visibility:visible;display:inline;overflow:visible" />
          <path
             inkscape:connector-curvature="0"
             d="m 300.77191,453.21908 c -10.18647,24.57596 -19.01178,-23.0467 0,0 z"
             id="path10033"
             style="fill:#94939a;fill-opacity:0.65476194;fill-rule:evenodd;stroke:none;stroke-width:2.48242378;marker:none;visibility:visible;display:inline;overflow:visible" />
          <path
             inkscape:connector-curvature="0"
             d="m 308.18221,497.68088 c -10.18647,24.57596 -19.01178,-23.0467 0,0 z"
             id="path10035"
             style="fill:#94939a;fill-opacity:0.65476194;fill-rule:evenodd;stroke:none;stroke-width:2.48242378;marker:none;visibility:visible;display:inline;overflow:visible" />
          <path
             inkscape:connector-curvature="0"
             d="m 225.43381,471.74488 c -10.18647,24.57596 -19.01178,-23.0467 0,0 z"
             id="path10037"
             style="fill:#94939a;fill-opacity:0.65476194;fill-rule:evenodd;stroke:none;stroke-width:2.48242378;marker:none;visibility:visible;display:inline;overflow:visible" />
          <path
             inkscape:connector-curvature="0"
             d="m 600.04811,436.66138 c -10.18647,24.57596 -19.01178,-23.0467 0,0 z"
             id="path10039"
             style="fill:#94939a;fill-opacity:0.65476194;fill-rule:evenodd;stroke:none;stroke-width:2.48242378;marker:none;visibility:visible;display:inline;overflow:visible" />
          <path
             inkscape:connector-curvature="0"
             d="m 78.284683,480.12616 c 3.666267,26.50383 14.398659,-1.25514 25.244107,17.71102 19.82169,-13.48451 5.65007,10.83189 9.35224,20.94539 -11.83973,-5.80537 -24.81826,0.33787 -29.356475,2.38924 22.014615,-13.67431 -7.674008,-20.28297 -5.239874,-41.04564 l 2e-6,-10e-6 z m 16.592919,-42.79224 c 10.506538,12.52276 19.814588,30.09979 -0.873318,17.46622 -11.009265,4.17927 8.246066,-13.78573 0.873318,-17.46622 z M 508.15811,61.565338 c 66.87091,27.441703 124.69077,76.737392 161.57297,138.980432 -21.68918,9.50953 -33.64309,-53.17339 -40.42607,-24.40911 16.18825,17.43546 -5.29019,23.1408 -6.00799,-0.30513 -1.48574,-19.89693 -39.64254,-58.49155 -49.71251,-42.29684 8.61081,26.55026 -6.19748,-7.19282 -6.72104,11.44177 -0.22362,-16.69329 18.88262,-28.65257 -9.24114,-29.16627 -15.01953,-14.91192 -28.15182,7.0811 -38.44944,-16.097092 -8.59693,-14.645969 -40.20303,1.123392 -17.72594,-16.763581 -14.84555,-1.584989 -42.32052,10.179849 -16.48453,-6.154361 12.33302,1.273628 27.59931,2.105904 23.19569,-15.229818 z M 210.24004,76.891068 C 286.45144,35.060705 378.79446,23.186325 462.74545,46.429568 445.94175,59.611775 419.32303,43.318246 413.8209,59.615118 392.71793,47.241221 402.405,84.919685 383.55254,59.324954 352.649,58.412163 403.45028,41.742047 375.90022,41.485277 360.99637,36.072415 363.18275,61.865265 359.71448,54.253916 350.46871,67.432594 343.21564,38.069113 330.8732,46.665825 c -22.72422,3.822016 -57.03052,4.827585 -55.06231,32.587489 -23.6858,-5.185933 -47.34738,23.865666 -65.22555,15.634713 1.16122,-5.936966 0.51973,-12.073307 -0.3453,-17.996959 z M 712.58057,314.44156 C 705.4,275.70318 692.92125,236.78171 670.83808,204.04709 c -16.7683,3.34268 -13.00115,27.79097 5.16013,32.92111 -14.65291,18.3814 20.39654,18.02848 16.28052,41.55963 1.42782,14.29841 2.29246,33.1357 20.30184,35.91373 z m -33.20288,205.98178 c -4.18238,4.95041 -26.15118,46.3628 -34.13926,37.29512 10.88088,-11.91636 18.38587,-31.22849 34.13926,-37.29512 z m -55.57721,35.81647 c -8.45546,20.45338 -27.49927,10.74238 -9.88042,-4.94022 12.62203,-10.83286 15.88627,-10.47865 9.88042,4.94022 z m 24.70098,-22.2309 c 4.13554,20.48557 -42.03351,25.87553 -30.57446,46.04745 11.97942,-11.90278 30.96049,-27.44808 30.57446,-46.04745 z M 196.74625,661.33826 c 95.30109,58.4904 219.21578,65.18881 320.90436,19.21286 -28.8376,-15.78737 -46.28166,20.25842 -73.89346,1.96272 -18.49223,0.3891 -40.06574,0.56163 -58.54934,0.58654 7.12513,20.14783 -33.19643,-0.60218 -26.59331,-16.58867 -9.53111,6.88696 -14.96034,18.95118 -29.77562,11.86352 -13.91809,12.89245 -39.25727,6.14754 -53.4422,1.25288 -3.37952,-7.39113 -19.52839,-13.03789 -14.89832,-19.44895 -15.70707,1.24959 -56.46468,-23.78187 -27.18218,2.32339 -4.67363,19.9555 -27.24708,-12.64636 -36.56993,-1.16429 z M 604.89142,391.92172 c -14.02887,-4.72891 -3.30647,-33.11754 -21.83284,-16.59291 4.07413,11.36041 -23.86874,30.45305 0.87337,20.08617 8.57932,-21.07767 18.86494,14.92443 20.95947,-3.49326 z"
             id="path10041"
             style="fill:#fbfbfc;fill-opacity:1;fill-rule:evenodd;stroke:none;stroke-width:1px;marker:none;visibility:visible;display:inline;overflow:visible" />
          <path
             inkscape:connector-curvature="0"
             d="m 566.90234,111.58881 c -15.05028,-23.084679 -21.60873,5.03075 0,0 z"
             id="path10043"
             style="fill:#5f5e64;fill-opacity:1;fill-rule:evenodd;stroke:none;stroke-width:1px;marker:none;visibility:visible;display:inline;overflow:visible" />
          <path
             inkscape:connector-curvature="0"
             d="m 615.16321,275.98969 c 18.99049,6.37677 24.94614,28.59471 28.40605,37.05145 11.72299,16.81552 -17.44034,20.09658 -6.97046,33.51218 -9.18263,-10.61192 -24.54692,1.6086 -5.5297,-8.76699 -4.90156,-9.77334 17.15878,-15.92792 -2.71975,-23.71254 -17.24811,1.49112 -26.86291,-29.38454 -13.18614,-38.0841 z"
             id="path10045"
             style="fill:#98989e;fill-opacity:1;fill-rule:evenodd;stroke:none;stroke-width:1px;marker:none;visibility:visible;display:inline;overflow:visible" />
          <path
             inkscape:connector-curvature="0"
             d="m 623.29659,301.45724 c -6.50898,0.44328 1.01866,-8.0005 0,0 z"
             id="path10047"
             style="fill:#e7e6e8;fill-opacity:1;fill-rule:evenodd;stroke:none;stroke-width:1px;marker:none;visibility:visible;display:inline;overflow:visible" />
          <path
             inkscape:connector-curvature="0"
             d="m 363.52203,602.37165 c 0.91635,51.31331 -72.26053,-4.9279 -16.79422,-10.80319 6.33244,0.19103 14.10538,3.6276 16.79422,10.80319 z"
             id="path10049"
             style="opacity:0.59585493;fill:url(#radialGradient10095);fill-opacity:1;fill-rule:evenodd;stroke:none;stroke-width:1.88348138;marker:none;visibility:visible;display:inline;overflow:visible" />
          <path
             inkscape:connector-curvature="0"
             d="m 353.98431,605.1757 c 0.45236,25.33039 -35.67076,-2.43262 -8.29031,-5.3329 3.12595,0.0943 6.96299,1.79073 8.29031,5.3329 z"
             id="path10051"
             style="opacity:0.8497409;fill:#ffffff;fill-opacity:1;fill-rule:evenodd;stroke:none;stroke-width:3.08021617;marker:none;visibility:visible;display:inline;overflow:visible" />
          <g
             id="g10053">
            <path
               inkscape:connector-curvature="0"
               d="m 318.44525,271.40475 c -0.14795,-20.92483 6.68661,-51.30174 -0.27535,-66.4787 -7.88556,19.84444 10.10702,65.30702 -15.49212,66.63956 7.92413,-16.8989 2.95922,-66.97585 -6.33925,-63.62531 1.23428,17.58175 17.80457,79.02406 -16.70213,56.76849 7.37032,-7.86057 -9.6444,-26.21717 14.81302,-20.92456 12.26552,-29.11138 -27.75786,1.32684 -19.48755,-23.21133 -13.97558,-23.54134 6.7452,33.20889 -7.32314,40.19914 -12.22133,22.76895 -51.18667,-17.86695 -53.99079,-9.45343 9.27021,5.10948 42.62475,26.74905 13.80317,16.98189 -14.73201,-11.28914 -39.35198,-13.1854 -11.15612,-1.08823 17.76276,5.23707 26.03952,20.50946 0.95612,11.27658 -18.99014,-2.0626 26.36583,8.61977 -0.93557,14.62609 15.40575,-2.85303 30.00995,-10.81235 21.3302,13.14724 18.82564,11.17079 5.99116,10.38225 -4.46606,15.71284 10.335,5.65278 45.22315,-5.02036 16.48418,4.22178 -9.39079,5.81539 -53.66695,-3.47249 -22.02052,6.67913 27.43582,6.7763 -16.51973,-4.5402 -7.48589,16.31123 4.23801,25.22671 39.79003,23.93145 45.64467,49.38417 6.91558,-14.00171 -17.32509,-39.18252 4.26448,-18.24825 9.30263,-10.61332 16.24918,2.56614 10.77035,-16.33491 21.35405,-3.27749 12.98841,38.55521 -2.05624,33.21268 -7.70196,17.21093 5.70181,20.06223 12.84917,23.87707 13.15069,8.60745 27.89269,43.31166 26.35855,36.43582 17.0085,-8.43197 12.88589,-25.75562 1.50829,-36.74955 18.73011,-5.37921 6.07241,-42.36453 2.81282,-14.43953 0.40921,-13.95657 -24.14851,-48.80746 -8.35183,-54.85113 14.43554,9.9219 62.91988,2.73042 23.09065,-5.76225 -18.60803,10.46067 -42.8805,-21.78822 -10.32749,-11.83814 14.34645,21.63009 21.3374,6.05697 27.49307,-7.91794 -20.48817,-9.2231 16.81148,-16.69725 -10.28265,-20.13997 -2.3586,-2.88665 6.70858,-32.16588 -13.15554,-26.64461 -13.87461,9.2436 5.63974,-23.1527 -12.3305,-7.76587 z"
               id="path10055"
               style="fill:#a8a7aa;fill-opacity:0.86706351;fill-rule:evenodd;stroke:none" />
            <path
               inkscape:connector-curvature="0"
               d="m 293.99258,293.23755 c -6.42821,-23.53055 -41.09769,-6.26472 -9.83554,1.4295 -4.3958,23.83508 -31.20032,-3.85425 -31.74034,-19.19173 -1.24,12.05429 -2.18714,18.2749 -5.09341,29.34903 9.51828,5.22556 15.80789,4.25075 12.90517,10.78826 29.41215,-3.13669 -13.35246,32.29072 11.05079,22.47502 1.37933,17.26485 11.7321,18.96708 26.75914,25.3004 -0.1809,-15.5768 -35.80971,-28.01933 -15.45359,-38.89718 22.15054,-5.38842 40.90226,-8.37205 61.03396,1.84883 -4.25858,-11.38404 -24.85696,-13.61338 -5.75879,-18.42645 -3.51882,-20.15659 -21.6972,25.99582 -35.17696,-1.17483 22.45478,0.74949 -13.54553,-41.36185 -8.69043,-13.50085 z"
               id="path10057"
               style="fill:#b9b8ba;fill-opacity:1;fill-rule:evenodd;stroke:none;stroke-width:1px;marker:none;visibility:visible;display:inline;overflow:visible" />
            <path
               inkscape:connector-curvature="0"
               d="m 294.86588,304.59061 c -24.61184,-5.74411 -20.13055,27.89949 5.16859,16.34953 7.0451,-4.94832 2.26245,-15.06897 -5.16859,-16.34953 z"
               id="path10059"
               style="fill:#e5e5e6;fill-opacity:1;fill-rule:evenodd;stroke:none;stroke-width:1px;marker:none;visibility:visible;display:inline;overflow:visible" />
            <path
               inkscape:connector-curvature="0"
               d="m 216.26784,302.84399 c -16.90643,-14.65456 -6.60967,-33.18742 -21.44569,-42.41883 2.73109,-16.87543 -10.60913,-28.82933 9.93647,-20.70041 -15.41571,-27.78807 52.63496,-4.21627 33.19384,-32.17249 -8.31519,4.19183 -53.00214,4.1482 -24.30452,-4.26577 31.84257,-14.06983 -19.61766,-13.6632 -24.57907,-23.63758 5.69669,-10.61149 1.37416,-32.49448 -4.21085,-10.47787 -5.53963,24.87326 -45.66575,6.81512 -41.88745,32.59416 -14.41183,5.15312 -49.486091,37.20777 -42.26514,38.94607 22.1694,-6.37754 57.01307,-56.88164 71.45964,-29.43857 -6.03975,23.48081 -30.86997,22.96588 -44.16102,20.55839 14.28454,8.66352 20.39691,17.58523 13.16841,32.68501 6.1369,-4.35471 16.86295,-17.78102 13.77257,-0.50495 1.92005,-21.86845 15.56895,3.51096 26.27965,-3.61364 -4.19739,18.6864 -49.05656,29.19012 -12.03811,43.69506 20.27557,25.09912 -69.342943,13.30478 -21.84184,20.14243 38.12351,-3.46482 -25.86136,20.07354 5.5494,16.56185 19.7973,-18.39804 26.0615,36.42572 37.26412,11.99177 -9.14904,-20.87707 10.80849,-14.9063 9.05614,1.34842 7.77048,-16.11858 19.5057,-32.42777 17.05345,-51.29305 z"
               id="path10061"
               style="fill:#a8a7aa;fill-opacity:0.86706351;fill-rule:evenodd;stroke:none;stroke-width:1px;marker:none;visibility:visible;display:inline;overflow:visible" />
            <path
               inkscape:connector-curvature="0"
               d="m 212.77461,312.45041 c -13.78547,8.11585 -22.02728,-33.05113 -24.22098,-3.25789 -9.88743,0.94489 -13.81161,5.7173 -10.83139,11.64319 -22.11265,1.90742 -12.15843,4.55378 3.94691,3.13791 2.25651,15.71196 16.24995,9.47793 19.4863,5.79666 9.85611,-3.67078 13.37196,-1.03106 6.03862,-8.84742 22.34542,-1.36129 -7.85745,0.90564 4.54055,-7.47042 l 1.04,-1.00203 -1e-5,0 z"
               id="path10063"
               style="fill:#b9b8ba;fill-opacity:1;fill-rule:evenodd;stroke:none;stroke-width:1px;marker:none;visibility:visible;display:inline;overflow:visible" />
            <path
               inkscape:connector-curvature="0"
               d="m 173.47562,226.86589 c -16.12278,5.27769 -25.62825,14.20471 -1.74663,7.85981 4.36624,0.6084 3.23244,-6.40694 1.74663,-7.85981 z"
               id="path10065"
               style="fill:#f3f3f4;fill-opacity:1;fill-rule:evenodd;stroke:none;stroke-width:1px;marker:none;visibility:visible;display:inline;overflow:visible" />
            <path
               inkscape:connector-curvature="0"
               d="m 174.34892,216.38615 c 1.06399,21.06553 -13.17596,-10.5209 0,0 z"
               id="path10067"
               style="fill:#e5e5e6;fill-opacity:1;fill-rule:evenodd;stroke:none;stroke-width:1px;marker:none;visibility:visible;display:inline;overflow:visible" />
            <path
               inkscape:connector-curvature="0"
               d="m 195.3084,315.94363 c -12.19142,7.02198 10.62804,9.5301 0,0 z"
               id="path10069"
               style="fill:#e5e5e6;fill-opacity:1;fill-rule:evenodd;stroke:none;stroke-width:1px;marker:none;visibility:visible;display:inline;overflow:visible" />
          </g>
        </g>
        <g
           transform="matrix(1.0062893,0,0,1.0072332,-2.331925,-3.0437572)"
           id="g10071">
          <g
             transform="matrix(0.973198,0,0,0.973198,10.05795,9.989903)"
             id="g10073">
            <path
               inkscape:connector-curvature="0"
               d="M 727.0864,373.06396 C 728.92521,508.02492 641.92712,638.30263 516.10349,691.0128 391.16833,746.5215 234.77081,720.38769 135.64817,626.98721 36.414071,538.16996 -2.142839,391.06955 40.588287,265.88364 82.150505,134.87946 209.1412,35.896685 348.21331,27.183492 482.1649,15.327755 618.28121,87.764265 682.55014,204.08529 c 29.22568,51.33088 44.64807,110.1232 44.53626,168.97867 z"
               id="path10075"
               style="fill:url(#radialGradient10097);fill-opacity:1;fill-rule:evenodd;stroke:none;stroke-width:0.96781009px;marker:none;visibility:visible;display:inline;overflow:visible" />
          </g>
        </g>
      </g>
    </g>
  </g>
</svg>
